<?xml version="1.0" encoding="utf-8"?>
<!-- Generator: Adobe Illustrator 18.0.0, SVG Export Plug-In . SVG Version: 6.00 Build 0)  -->
<!DOCTYPE svg PUBLIC "-//W3C//DTD SVG 1.1//EN" "http://www.w3.org/Graphics/SVG/1.1/DTD/svg11.dtd">
<svg version="1.1" id="Ebene_1" xmlns="http://www.w3.org/2000/svg" xmlns:xlink="http://www.w3.org/1999/xlink" x="0px" y="0px"
	 width="77px" height="76px" viewBox="0 0 77 76" enable-background="new 0 0 77 76" xml:space="preserve">
<title>Group 7</title>
<desc>Created with Sketch.</desc>
<g id="Page-1_1_">
	<g id="Group-7">
		<g id="Group-13-Copy-2">
			<circle id="Oval-19" fill="#292C38" cx="38.5" cy="38" r="38"/>
		</g>
	</g>
</g>
<g id="refresh-arrow" transform="translate(18.000000, 18.000000)">
	<path id="Shape" fill="#FFFFFF" d="M33.1,20.9h-2.3c-0.6,0-1,0.5-1,1c-0.5,4.4-4.2,7.7-8.7,7.7c-4.8,0-8.7-3.9-8.7-8.7
		s3.9-8.6,8.7-8.7v1.4c0,0.6,0.5,0.9,1,0.6l7.2-3.5c0.5-0.3,0.5-0.8,0-1l-7.2-3.6c-0.5-0.3-1,0-1,0.6v1.4c-7.2,0.1-13,5.8-13,13
		s5.8,13,13,13c6.9,0,12.5-5.3,13-12C34.1,21.4,33.6,20.9,33.1,20.9L33.1,20.9L33.1,20.9z"/>
</g>
</svg>
