<?xml version="1.0" encoding="UTF-8" standalone="no"?>
<svg width="59px" height="58px" viewBox="0 0 59 58" version="1.1" xmlns="http://www.w3.org/2000/svg" xmlns:xlink="http://www.w3.org/1999/xlink">
    <!-- Generator: Sketch 39 (31667) - http://www.bohemiancoding.com/sketch -->
    <title>Group 2</title>
    <desc>Created with Sketch.</desc>
    <defs>
        <path d="M29,58 C45.0162577,58 58,45.0162577 58,29 C58,12.9837423 45.0162577,0 29,0 C12.9837423,0 0,12.9837423 0,29 C0,45.0162577 12.9837423,58 29,58 Z" id="path-1"></path>
        <mask id="mask-2" maskContentUnits="userSpaceOnUse" maskUnits="objectBoundingBox" x="0" y="0" width="58" height="58" fill="white">
            <use xlink:href="#path-1"></use>
        </mask>
    </defs>
    <g id="Page-1" stroke="none" stroke-width="1" fill="none" fill-rule="evenodd">
        <g id="Group-2">
            <g id="Group-14-Copy-2" stroke="#292C38" stroke-width="6" fill="#292C38">
                <g id="Group" transform="translate(0.500000, 0.000000)">
                    <use id="Oval-19" mask="url(#mask-2)" xlink:href="#path-1"></use>
                </g>
            </g>
            <g id="refresh-arrow" transform="translate(19.000000, 18.000000)" fill="#FFFFFF">
                <path d="M20.1436897,12.1303649 L18.3244091,12.1303649 C17.8640692,12.1303649 17.492585,12.4976319 17.4766897,12.9503628 C17.0988557,16.4520637 14.1271897,19.1780921 10.510998,19.1780921 C6.64081423,19.1780921 3.50716601,16.0563226 3.50716601,12.2032058 C3.50716601,8.38493672 6.66301779,5.28212234 10.4824447,5.22831942 L10.4824447,6.36178139 C10.4824447,6.87787555 10.8507332,7.10897978 11.3015692,6.87787555 L17.1402332,3.89860095 C17.5910692,3.66745533 17.5910692,3.29385613 17.1402332,3.0627519 L11.3015692,0.0897267153 C10.8507332,-0.141377518 10.4824447,0.0897267153 10.4824447,0.602634088 L10.4824447,1.74557365 C4.72632806,1.79941796 0.00527075099,6.46624182 0.00527075099,12.209538 C0.00527075099,17.9876404 4.70727866,22.6734609 10.5110395,22.6734609 C16.0608083,22.6734609 20.6072253,18.3897552 20.9881719,12.9567364 C20.9913261,12.5008187 20.6071838,12.1303649 20.1436897,12.1303649 L20.1436897,12.1303649 Z" id="Shape"></path>
            </g>
        </g>
    </g>
</svg>