<?xml version="1.0" encoding="utf-8"?>
<!-- Generator: Adobe Illustrator 18.0.0, SVG Export Plug-In . SVG Version: 6.00 Build 0)  -->
<!DOCTYPE svg PUBLIC "-//W3C//DTD SVG 1.1//EN" "http://www.w3.org/Graphics/SVG/1.1/DTD/svg11.dtd">
<svg version="1.1" id="Ebene_1" xmlns="http://www.w3.org/2000/svg" xmlns:xlink="http://www.w3.org/1999/xlink" x="0px" y="0px"
	 width="77px" height="76px" viewBox="0 0 77 76" enable-background="new 0 0 77 76" xml:space="preserve">
<title>Group 7</title>
<desc>Created with Sketch.</desc>
<g id="Page-1_1_">
	<g id="Group-7">
		<g id="Group-13-Copy-2">
			<circle id="Oval-19" fill="#292C38" cx="38.5" cy="38" r="38"/>
		</g>
	</g>
</g>
<g id="speaker" transform="translate(18.000000, 19.000000)">
	<path id="Shape_1_" fill="#FFFFFF" d="M20.5,5l-9.2,9.2H5.1v9.4h6.1l9.2,9.4V5L20.5,5z M23.6,5.1v3.1c4.8,0.7,8.7,4.7,9.2,9.7
		c0,0.3,0,0.7,0,1c0,5.4-4,9.9-9.2,10.7v3.1c7-0.7,12.2-6.7,12.2-13.8S30.4,5.9,23.6,5.1L23.6,5.1z M23.6,11.3v3.3
		c1.8,0.6,3.1,2.4,3.1,4.4s-1.3,3.7-3.1,4.4v3.3c3.6-0.7,6.1-3.8,6.1-7.7S27,12.1,23.6,11.3L23.6,11.3z"/>
</g>
</svg>
